<svg xmlns="http://www.w3.org/2000/svg" width="156" height="96" fill="none"><rect width="120" height="26" x="18" y="18" fill="var(--background-page)" class="glow" rx="6"/><rect width="118" height="24" x="19" y="19" stroke="var(--primary)" stroke-width="2" rx="5"/><rect width="50" height="6" x="28" y="28" fill="var(--primary)" fill-opacity=".25" rx="2"/><rect width="20" height="6" x="82" y="28" fill="var(--primary)" fill-opacity=".25" rx="2"/><rect width="118" height="24" x="19" y="53" fill="var(--background-page)" stroke="var(--primary)" stroke-width="2" opacity=".25" rx="5"/><rect width="20" height="6" x="28" y="62" fill="var(--primary)" fill-opacity=".25" rx="2"/><rect width="40" height="6" x="52" y="62" fill="var(--primary)" fill-opacity=".25" rx="2"/><path fill="var(--primary)" d="m124.52 32.777-1.504-1.449.027-.027a9.996 9.996 0 0 0 2.16-3.801h1.723v-1.176h-4.102v-1.148h-1.148v1.148h-4.102V27.5h6.535c-.41 1.121-1.011 2.188-1.859 3.117a9.14 9.14 0 0 1-1.34-1.941h-1.176a10.89 10.89 0 0 0 1.75 2.652l-2.98 2.926.82.82 2.926-2.898 1.805 1.804.465-1.203Zm3.281-2.953h-1.176l-2.625 7h1.176l.656-1.75h2.762l.656 1.75h1.176l-2.625-7Zm-1.531 4.102.929-2.543.957 2.543h-1.886Z"/><path fill="var(--primary)" d="m124.52 66.777-1.504-1.449.027-.027a9.996 9.996 0 0 0 2.16-3.801h1.723v-1.176h-4.102v-1.148h-1.148v1.148h-4.102V61.5h6.535c-.41 1.121-1.011 2.188-1.859 3.117a9.14 9.14 0 0 1-1.34-1.941h-1.176a10.89 10.89 0 0 0 1.75 2.652l-2.98 2.926.82.82 2.926-2.898 1.805 1.805.465-1.204Zm3.281-2.953h-1.176l-2.625 7h1.176l.656-1.75h2.762l.656 1.75h1.176l-2.625-7Zm-1.531 4.102.929-2.543.957 2.543h-1.886Z" opacity=".25"/></svg>