<svg xmlns="http://www.w3.org/2000/svg" width="156" height="96" fill="none" viewBox="0 0 156 96"><rect width="120" height="22" x="18.444" y="9" fill="var(--background-page)" rx="6"/><rect width="118" height="20" x="19.444" y="10" stroke="var(--primary)" stroke-opacity=".25" stroke-width="2" rx="5"/><rect width="10" height="6" x="46" y="17" fill="var(--primary)" fill-opacity=".25" rx="2"/><rect width="40" height="6" x="60" y="17" fill="var(--primary)" fill-opacity=".25" rx="2"/><path fill="var(--primary)" d="M38 18H28V19.2691H38V18ZM28 21.7778H38V20.5087H28V21.7778Z" opacity=".5"/><rect width="120" height="22" x="18" y="65" fill="var(--background-page)" rx="6"/><rect width="118" height="20" x="19" y="66" stroke="var(--primary)" stroke-opacity=".25" stroke-width="2" rx="5"/><rect width="60" height="6" x="46" y="73" fill="var(--primary)" fill-opacity=".25" rx="2"/><path fill="var(--primary)" d="M38 74H28V75.2691H38V74ZM28 77.7778H38V76.5087H28V77.7778Z" opacity=".5"/><rect width="120" height="22" x="18" y="37" fill="var(--background-page)" class="glow" rx="6"/><rect width="118" height="20" x="19" y="38" stroke="var(--primary)" stroke-width="2" rx="5"/><rect width="30" height="6" x="46" y="45" fill="var(--primary)" rx="2"/><rect width="10" height="6" x="80" y="45" fill="var(--primary)" rx="2"/><path fill="var(--primary)" d="M38 46H28V47.2691H38V46ZM28 49.7778H38V48.5087H28V49.7778Z"/><path fill="var(--primary)" d="M127.074 52.0742H118.926V43.9258H123V42.75H118.926C118.27 42.75 117.75 43.2695 117.75 43.9258V52.0742C117.75 52.7305 118.27 53.25 118.926 53.25H127.074C127.73 53.25 128.25 52.7305 128.25 52.0742V48H127.074V52.0742ZM124.176 42.75V43.9258H126.254L120.539 49.6406L121.359 50.4609L127.074 44.7461V46.8242H128.25V42.75H124.176Z"/></svg>