<svg xmlns="http://www.w3.org/2000/svg" width="156" height="96" fill="none"><rect width="120" height="62" x="18" y="17.037" fill="var(--background-page)" rx="6"/><rect width="118" height="60" x="19" y="18.037" stroke="var(--primary)" stroke-opacity=".25" stroke-width="2" rx="5"/><rect width="40" height="6" x="28" y="51" fill="var(--primary)" fill-opacity=".25" rx="2"/><rect width="60" height="6" x="28" y="63" fill="var(--primary)" fill-opacity=".25" rx="2"/><rect width="120" height="26" x="18" y="17" fill="var(--background-page)" class="glow" rx="6"/><rect width="118" height="24" x="19" y="18" stroke="var(--primary)" stroke-width="2" rx="5"/><rect width="70" height="6" x="28" y="27" fill="var(--primary)" fill-opacity=".25" rx="2"/><path fill="var(--primary)" d="M120.966 28a.4.4 0 00-.283.683l3.034 3.034a.4.4 0 00.566 0l3.034-3.034a.4.4 0 00-.283-.683h-6.068z"/></svg>