<svg xmlns="http://www.w3.org/2000/svg" width="156" height="96" fill="none"><rect width="120" height="66" x="18" y="15" fill="var(--background-page)" class="glow" rx="6"/><rect width="118" height="64" x="19" y="16" stroke="var(--primary)" stroke-width="2" rx="5"/><rect width="6" height="6" x="28" y="25" fill="var(--primary)" fill-opacity=".25" rx="2"/><rect width="6" height="6" x="28" y="45.148" fill="var(--primary)" fill-opacity=".25" rx="2"/><rect width="6" height="6" x="28" y="55.222" fill="var(--primary)" fill-opacity=".25" rx="2"/><rect width="6" height="6" x="28" y="65.296" fill="var(--primary)" fill-opacity=".25" rx="2"/><rect width="6" height="6" x="28" y="35.074" fill="var(--primary)" fill-opacity=".25" rx="2"/><rect width="10" height="6" x="42" y="25" fill="var(--primary)" rx="2"/><rect width="50" height="6" x="46" y="35" fill="var(--primary)" fill-opacity=".25" rx="2"/><rect width="60" height="6" x="46" y="45" fill="var(--primary)" fill-opacity=".25" rx="2"/><rect width="40" height="6" x="46" y="55" fill="var(--primary)" fill-opacity=".25" rx="2"/><rect width="10" height="6" x="42" y="65" fill="var(--primary)" rx="2"/></svg>