<svg xmlns="http://www.w3.org/2000/svg" width="156" height="96" fill="none"><rect width="120" height="66" x="18" y="15" fill="var(--background-page)" class="glow" rx="6"/><rect width="118" height="64" x="19" y="16" stroke="var(--primary)" stroke-width="2" rx="5"/><rect width="8" height="8" x="28" y="25" fill="var(--primary)" fill-opacity=".25" rx="2"/><rect width="8" height="8" x="42" y="25" fill="var(--primary)" rx="2"/><rect width="8" height="8" x="56" y="25" fill="var(--primary)" fill-opacity=".25" rx="2"/><rect width="8" height="8" x="70" y="25" fill="var(--primary)" fill-opacity=".25" rx="2"/><rect width="8" height="8" x="84" y="25" fill="var(--primary)" fill-opacity=".25" rx="2"/><rect width="8" height="8" x="98" y="25" fill="var(--primary)" fill-opacity=".25" rx="2"/><rect width="60" height="6" x="28" y="39" fill="var(--primary)" fill-opacity=".25" rx="2"/><rect width="60" height="6" x="28" y="59" fill="var(--primary)" fill-opacity=".25" rx="2"/><rect width="40" height="6" x="28" y="49" fill="var(--primary)" fill-opacity=".25" rx="2"/><rect width="30" height="6" x="92" y="39" fill="var(--primary)" rx="2"/><rect width="50" height="6" x="72" y="49" fill="var(--primary)" fill-opacity=".25" rx="2"/></svg>