<svg xmlns="http://www.w3.org/2000/svg" width="156" height="96" fill="none"><rect width="40" height="6" x="60.34" y="36" fill="var(--primary)" rx="2"/><rect width="20" height="6" x="104.34" y="36" fill="var(--primary)" rx="2"/><rect width="10" height="6" x="104.34" y="18" fill="var(--primary)" rx="2"/><rect width="60" height="6" x="60.34" y="72" fill="var(--primary)" rx="2"/><rect width="20" height="6" x="50.34" y="54" fill="var(--primary)" rx="2"/><rect width="40" height="6" x="74.34" y="54" fill="var(--primary)" rx="2"/><rect width="50" height="6" x="50.59" y="18.25" fill="var(--primary)" rx="2"/><path fill="var(--primary)" d="m39 20.16-.82-.82-2.68 2.652-2.68-2.652-.82.82 3.5 3.5 3.5-3.5ZM44.16 36l-.82.82 2.652 2.68-2.652 2.68.82.82 3.5-3.5-3.5-3.5ZM39 56.16l-.82-.82-2.68 2.652-2.68-2.652-.82.82 3.5 3.5 3.5-3.5ZM44.16 72l-.82.82 2.652 2.68-2.652 2.68.82.82 3.5-3.5-3.5-3.5Z"/></svg>