<svg xmlns="http://www.w3.org/2000/svg" width="156" height="96" fill="none" viewBox="0 0 156 96"><rect width="6" height="6" x="18" y="15" fill="var(--primary)" rx="2"/><rect width="30" height="6" x="28" y="15" fill="var(--primary)" rx="2"/><rect width="120" height="2" x="18" y="27" fill="var(--primary)" opacity=".25" rx="1"/><rect width="6" height="6" x="18" y="41" fill="var(--primary)" rx="2"/><rect width="50" height="6" x="28" y="41" fill="var(--primary)" rx="2"/><rect width="120" height="2" x="18" y="53" fill="var(--primary)" opacity=".25" rx="1"/><rect width="6" height="6" x="18" y="67" fill="var(--primary)" rx="2"/><rect width="40" height="6" x="28" y="67" fill="var(--primary)" rx="2"/><rect width="120" height="2" x="18" y="79" fill="var(--primary)" opacity=".25" rx="1"/><path fill="var(--primary)" d="M130.82 14.6602L130 15.4805L132.652 18.1602L130 20.8398L130.82 21.6602L134.32 18.1602L130.82 14.6602Z"/><path fill="var(--primary)" d="M130.82 41L130 41.8203L132.652 44.5L130 47.1797L130.82 48L134.32 44.5L130.82 41Z"/><path fill="var(--primary)" d="M130.82 67L130 67.8203L132.652 70.5L130 73.1797L130.82 74L134.32 70.5L130.82 67Z"/></svg>