<svg xmlns="http://www.w3.org/2000/svg" width="156" height="96" fill="none"><rect width="56" height="36" x="19" y="9" fill="var(--background-page)" class="glow" rx="6"/><rect width="54" height="34" x="20" y="10" stroke="var(--primary)" stroke-width="2" rx="5"/><rect width="44" height="24" x="25" y="15" fill="var(--primary)" fill-opacity=".25" rx="4"/><path fill="var(--primary)" d="M36.695 27.2L45.39 35H28l8.695-7.8z"/><path fill="var(--primary)" d="M52.153 23L66 35H38.305l13.848-12z"/><rect width="56" height="36" x="81" y="9" fill="var(--background-page)" rx="6"/><rect width="54" height="34" x="82" y="10" stroke="var(--primary)" stroke-opacity=".25" stroke-width="2" rx="5"/><rect width="44" height="24" x="87" y="15" fill="var(--primary)" fill-opacity=".25" rx="4"/><path fill="var(--primary)" d="M98.695 27.2l8.695 7.8H90l8.695-7.8z"/><path fill="var(--primary)" d="M114.153 23L128 35h-27.695l13.848-12z"/><rect width="56" height="36" x="19" y="51" fill="var(--background-page)" rx="6"/><rect width="54" height="34" x="20" y="52" stroke="var(--primary)" stroke-opacity=".25" stroke-width="2" rx="5"/><rect width="44" height="24" x="25" y="57" fill="var(--primary)" fill-opacity=".25" rx="4"/><path fill="var(--primary)" d="M36.695 69.2L45.39 77H28l8.695-7.8z"/><path fill="var(--primary)" d="M52.153 65L66 77H38.305l13.848-12z"/><rect width="56" height="36" x="81" y="51" fill="var(--background-page)" rx="6"/><rect width="54" height="34" x="82" y="52" stroke="var(--primary)" stroke-opacity=".25" stroke-width="2" rx="5"/><rect width="44" height="24" x="87" y="57" fill="var(--primary)" fill-opacity=".25" rx="4"/><path fill="var(--primary)" d="M98.695 69.2l8.695 7.8H90l8.695-7.8z"/><path fill="var(--primary)" d="M114.153 65L128 77h-27.695l13.848-12z"/></svg>