<svg xmlns="http://www.w3.org/2000/svg" width="156" height="96" fill="none" viewBox="0 0 156 96"><rect width="98" height="77" x="29" y="10" fill="var(--background-page)" class="glow" rx="6"/><rect width="96" height="75" x="30" y="11" stroke="var(--primary)" stroke-width="2" rx="5"/><rect width="30" height="5.037" x="39" y="20" fill="var(--primary)" rx="2"/><rect width="6" height="6" x="39" y="41" fill="var(--primary)" fill-opacity=".25" rx="2"/><rect width="6" height="6" x="39" y="51" fill="var(--primary)" fill-opacity=".25" rx="2"/><rect width="6" height="6" x="39" y="61" fill="var(--primary)" fill-opacity=".25" rx="2"/><rect width="6" height="6" x="39" y="71" fill="var(--primary)" fill-opacity=".25" rx="2"/><rect width="6" height="6" x="51" y="41" fill="var(--primary)" fill-opacity=".25" rx="2"/><rect width="6" height="6" x="51" y="61" fill="var(--primary)" fill-opacity=".25" rx="2"/><rect width="6" height="6" x="51" y="71" fill="var(--primary)" fill-opacity=".25" rx="2"/><rect width="6" height="6" x="87" y="71" fill="var(--primary)" fill-opacity=".1" rx="2"/><rect width="6" height="6" x="63" y="31" fill="var(--primary)" fill-opacity=".25" rx="2"/><rect width="6" height="6" x="39" y="31" fill="var(--primary)" fill-opacity=".1" rx="2"/><rect width="6" height="6" x="63" y="41" fill="var(--primary)" fill-opacity=".25" rx="2"/><rect width="6" height="6" x="63" y="51" fill="var(--primary)" rx="2"/><rect width="6" height="6" x="63" y="61" fill="var(--primary)" fill-opacity=".25" rx="2"/><rect width="6" height="6" x="63" y="71" fill="var(--primary)" fill-opacity=".25" rx="2"/><rect width="6" height="6" x="99" y="71" fill="var(--primary)" fill-opacity=".1" rx="2"/><rect width="6" height="6" x="75" y="31" fill="var(--primary)" fill-opacity=".25" rx="2"/><rect width="6" height="6" x="51" y="31" fill="var(--primary)" fill-opacity=".1" rx="2"/><rect width="6" height="6" x="75" y="41" fill="var(--primary)" fill-opacity=".25" rx="2"/><rect width="6" height="6" x="75" y="51" fill="var(--primary)" fill-opacity=".25" rx="2"/><rect width="6" height="6" x="75" y="61" fill="var(--primary)" fill-opacity=".25" rx="2"/><rect width="6" height="6" x="75" y="71" fill="var(--primary)" fill-opacity=".25" rx="2"/><rect width="6" height="6" x="111" y="71" fill="var(--primary)" fill-opacity=".1" rx="2"/><rect width="6" height="6" x="87" y="31" fill="var(--primary)" fill-opacity=".25" rx="2"/><rect width="6" height="6" x="87" y="41" fill="var(--primary)" fill-opacity=".25" rx="2"/><rect width="6" height="6" x="87" y="51" fill="var(--primary)" fill-opacity=".25" rx="2"/><rect width="6" height="6" x="87" y="61" fill="var(--primary)" fill-opacity=".25" rx="2"/><rect width="6" height="6" x="99" y="31" fill="var(--primary)" fill-opacity=".25" rx="2"/><rect width="6" height="6" x="99" y="41" fill="var(--primary)" fill-opacity=".25" rx="2"/><rect width="6" height="6" x="99" y="51" fill="var(--primary)" fill-opacity=".25" rx="2"/><rect width="6" height="6" x="99" y="61" fill="var(--primary)" fill-opacity=".25" rx="2"/><rect width="6" height="6" x="111" y="31" fill="var(--primary)" fill-opacity=".25" rx="2"/><rect width="6" height="6" x="111" y="41" fill="var(--primary)" fill-opacity=".25" rx="2"/><rect width="6" height="6" x="111" y="51" fill="var(--primary)" fill-opacity=".25" rx="2"/><rect width="6" height="6" x="111" y="61" fill="var(--primary)" fill-opacity=".25" rx="2"/><rect width="6" height="6" x="51" y="51" fill="var(--primary)" fill-opacity=".25" rx="2"/></svg>